<svg width="248" height="48" viewBox="0 0 248 48" fill="none" xmlns="http://www.w3.org/2000/svg">
<path d="M48.4284 18.7716C50.1945 14.5078 51.3629 10.0304 51.9082 5.46648L37.3833 2.62304C37.0276 6.91405 35.9053 10.0483 34.1646 14.3708C31.9585 19.8489 28.7234 24.8304 24.6412 29.0292C20.5589 33.2282 15.7091 36.5624 10.3671 38.8383C9.45931 39.2251 8.54034 39.58 7.61183 39.9027L22.0924 45.6441C27.8378 43.1274 33.0657 39.5588 37.5052 35.1193C42.1843 30.4401 45.896 24.8852 48.4284 18.7716Z" stroke="white" stroke-width="4.35703"/>
<path d="M88.4488 28.988H93.5048C93.0568 33.98 88.7048 37.5 82.4648 37.5C76.0328 37.5 71.1368 33.628 71.1368 26.14C71.1368 18.78 76.0328 14.748 82.4648 14.748C88.7048 14.748 93.1848 18.492 93.5048 23.292H88.4488C87.7448 20.86 86.0808 19.708 82.4648 19.708C78.6248 19.708 75.9688 21.692 75.9688 26.14C75.9688 30.588 78.6248 32.54 82.4648 32.54C86.2088 32.54 87.8408 31.196 88.4488 28.988ZM109.455 22.204H109.679V19.548H114.543V37.5H109.679V35.004H109.519C108.303 36.572 106.255 37.5 102.863 37.5C95.3431 37.5 94.5111 30.94 94.5111 28.54C94.5111 25.916 95.3111 19.548 102.895 19.548C106.223 19.548 108.239 20.604 109.455 22.204ZM104.303 33.34C108.495 33.34 109.359 31.26 109.359 28.54C109.359 26.108 108.495 23.74 104.303 23.74C99.6311 23.74 99.1511 27.132 99.1511 28.54C99.1511 29.82 99.6631 33.34 104.303 33.34ZM125.11 26.62C129.174 27.228 133.782 27.932 133.782 32.188C133.782 36.636 130.582 37.5 125.078 37.5C121.014 37.5 118.23 36.764 116.79 35.324C115.542 34.076 115.542 32.572 115.574 31.644V31.292H120.566V31.452C120.566 32.988 121.718 33.692 124.95 33.692C126.902 33.692 128.758 33.436 128.758 32.252C128.758 30.908 127.03 30.652 125.078 30.428C124.822 30.396 124.566 30.364 124.31 30.332C119.158 29.66 115.958 28.508 115.958 24.924C115.958 22.428 117.398 19.452 124.31 19.452C131.734 19.452 133.302 22.748 133.302 25.5V25.66H128.342V25.5C128.342 24.092 127.126 23.324 124.31 23.324C121.59 23.324 121.014 24.316 121.014 24.86C121.014 25.66 121.558 26.108 124.694 26.588L125.11 26.62ZM146.185 19.548C153.801 19.548 154.281 25.916 154.281 28.54V37.5H149.449V28.54C149.449 27.132 149.449 23.74 144.777 23.74C140.585 23.74 139.657 26.428 139.657 28.86V37.5H134.793V14.396H139.657V22.204H139.881C141.033 20.604 142.985 19.548 146.185 19.548ZM166.411 19.548C167.691 19.548 168.747 19.836 169.579 20.028L168.811 24.604C168.363 24.476 167.115 24.22 165.579 24.22C161.963 24.22 160.907 27.036 160.907 29.468V37.5H156.043V19.548H160.907V22.204H161.195C162.219 20.476 163.307 19.548 166.411 19.548ZM184.424 22.204H184.648V19.548H189.512V37.5H184.648V35.004H184.488C183.272 36.572 181.224 37.5 177.832 37.5C170.312 37.5 169.48 30.94 169.48 28.54C169.48 25.916 170.28 19.548 177.864 19.548C181.192 19.548 183.208 20.604 184.424 22.204ZM179.272 33.34C183.464 33.34 184.328 31.26 184.328 28.54C184.328 26.108 183.464 23.74 179.272 23.74C174.6 23.74 174.12 27.132 174.12 28.54C174.12 29.82 174.632 33.34 179.272 33.34ZM215.865 19.548C223.449 19.548 223.641 25.916 223.673 28.54V37.5H218.809V28.54C218.809 27.132 218.873 23.74 214.457 23.74C210.265 23.74 209.977 26.428 209.977 28.86L209.945 28.764V37.5H205.113V28.54C205.113 27.132 205.177 23.74 200.761 23.74C196.569 23.74 196.281 26.428 196.281 28.86V37.5H191.449V19.708H196.281V22.204H196.505C197.657 20.604 199.257 19.548 202.457 19.548C205.689 19.548 207.513 20.7 208.537 22.204H208.761C209.945 20.604 211.385 19.548 215.865 19.548ZM237.099 19.58C244.683 19.58 245.483 25.948 245.483 28.572C245.483 30.972 244.651 37.564 237.099 37.564C233.739 37.564 231.691 36.604 230.475 35.036H230.251V44.348H225.387V19.58H230.251V22.204H230.507C231.723 20.636 233.771 19.58 237.099 19.58ZM235.691 33.372C240.331 33.372 240.843 29.852 240.843 28.572C240.843 27.164 240.331 23.772 235.691 23.772C231.467 23.772 230.603 26.14 230.603 28.572C230.603 31.292 231.467 33.372 235.691 33.372Z" fill="white"/>
</svg>
