<svg width="676" height="107" viewBox="0 0 676 107" fill="none" xmlns="http://www.w3.org/2000/svg">
<mask id="path-1-inside-1_6025_26182" fill="white">
<path d="M42.6374 90.3874C41.0537 91.4083 39.4352 92.3713 37.7844 93.2744L3.59475 81.686C5.85973 81.0666 8.09159 80.3103 10.2803 79.4202L42.6374 90.3874Z"/>
<path d="M18.2794 75.4536C25.262 71.3272 31.4793 65.7905 36.6143 59.1188C42.0786 52.0194 46.2103 43.7738 48.7735 34.853C51.2581 26.2058 52.5111 20.8184 51.9225 11.9492L60.7627 13.1114C60.297 18.0323 59.1343 22.5212 57.4409 28.4147C54.6779 38.0309 50.2242 46.9192 44.3339 54.572C38.4437 62.2249 31.2324 68.4925 23.1116 73.017C21.5281 73.8992 19.9161 74.7118 18.2794 75.4536Z"/>
</mask>
<path d="M37.7844 93.2744L41.9154 100.825L38.6003 102.639L35.0215 101.426L37.7844 93.2744ZM42.6374 90.3874L45.4003 82.2358L62.2896 87.9603L47.3006 97.6219L42.6374 90.3874ZM3.59475 81.686L0.831814 89.8377L-25.8139 80.8063L1.32402 73.3838L3.59475 81.686ZM10.2803 79.4202L7.03795 71.4471L10.0073 70.2396L13.0432 71.2686L10.2803 79.4202ZM36.6143 59.1188L29.7936 53.8691L36.6143 59.1188ZM18.2794 75.4536L21.8323 83.2932L13.9005 68.0436L18.2794 75.4536ZM48.7735 34.853L57.0459 37.2299L57.0459 37.2299L48.7735 34.853ZM51.9225 11.9492L43.3342 12.5192L42.6392 2.04756L53.0444 3.41551L51.9225 11.9492ZM60.7627 13.1114L61.8846 4.57771L70.1136 5.65955L69.3315 13.9224L60.7627 13.1114ZM57.4409 28.4147L65.7134 30.7916L65.7134 30.7916L57.4409 28.4147ZM44.3339 54.572L37.5132 49.3223H37.5132L44.3339 54.572ZM23.1116 73.017L27.3008 80.5359L27.3008 80.5359L23.1116 73.017ZM33.6534 85.7234C35.122 84.9199 36.5631 84.0625 37.9742 83.1529L47.3006 97.6219C45.5442 98.754 43.7483 99.8227 41.9154 100.825L33.6534 85.7234ZM6.35769 73.5344L40.5474 85.1228L35.0215 101.426L0.831814 89.8377L6.35769 73.5344ZM13.5226 87.3933C11.0185 88.4116 8.46222 89.278 5.86547 89.9883L1.32402 73.3838C3.25724 72.8551 5.16471 72.2089 7.03795 71.4471L13.5226 87.3933ZM13.0432 71.2686L45.4003 82.2358L39.8745 98.5391L7.51736 87.5718L13.0432 71.2686ZM43.4351 64.3686C37.6559 71.8772 30.6193 78.159 22.6583 82.8636L13.9005 68.0436C19.9047 64.4954 25.3027 59.7037 29.7936 53.8691L43.4351 64.3686ZM57.0459 37.2299C54.1948 47.153 49.5834 56.3804 43.4351 64.3686L29.7936 53.8691C34.5738 47.6583 38.2258 40.3947 40.5011 32.4761L57.0459 37.2299ZM60.5107 11.3792C61.197 21.7193 59.6314 28.2314 57.0459 37.2299L40.5011 32.4761C42.8847 24.1802 43.8253 19.9174 43.3342 12.5192L60.5107 11.3792ZM59.6408 21.6451L50.8006 20.4829L53.0444 3.41551L61.8846 4.57771L59.6408 21.6451ZM69.3315 13.9224C68.7843 19.7045 67.4182 24.8583 65.7134 30.7916L49.1685 26.0379C50.8504 20.1841 51.8096 16.3602 52.1938 12.3004L69.3315 13.9224ZM65.7134 30.7916C62.6624 41.41 57.729 51.2802 51.1547 59.8218L37.5132 49.3223C42.7194 42.5581 46.6935 34.6518 49.1685 26.0378L65.7134 30.7916ZM51.1547 59.8218C44.579 68.3653 36.4837 75.4196 27.3008 80.5359L18.9224 65.4981C25.9811 61.5653 32.3085 56.0845 37.5132 49.3223L51.1547 59.8218ZM27.3008 80.5359C25.5106 81.5332 23.6864 82.4529 21.8323 83.2932L14.7264 67.614C16.1459 66.9707 17.5457 66.2651 18.9225 65.4981L27.3008 80.5359Z" fill="black" mask="url(#path-1-inside-1_6025_26182)"/>
<mask id="path-3-inside-2_6025_26182" fill="white">
<path d="M46.4364 54.011C52.1865 46.3032 56.553 37.4321 59.302 27.8647C62.0732 18.2198 63.4708 12.2108 62.8143 2.31836L68.2031 3.02682C67.7262 12.1405 65.6553 18.3456 62.0702 27.6908C58.3438 37.4046 53.0475 46.3155 46.4364 54.011Z"/>
</mask>
<path d="M59.302 27.8647L67.5744 30.2416L67.5744 30.2416L59.302 27.8647ZM46.4364 54.011L52.9652 59.6197L39.5375 48.8644L46.4364 54.011ZM62.8143 2.31836L54.226 2.88838L53.531 -7.5833L63.9362 -6.21535L62.8143 2.31836ZM68.2031 3.02682L69.325 -5.50689L77.2144 -4.4697L76.7985 3.47664L68.2031 3.02682ZM62.0702 27.6908L70.1064 30.7737L70.1064 30.7737L62.0702 27.6908ZM67.5744 30.2416C64.5485 40.773 59.7278 50.5887 53.3354 59.1576L39.5375 48.8644C44.6452 42.0177 48.5576 34.0912 51.0295 25.4878L67.5744 30.2416ZM71.4025 1.74834C72.1567 13.1118 70.4466 20.2454 67.5744 30.2416L51.0295 25.4878C53.6998 16.1942 54.785 11.3098 54.226 2.88838L71.4025 1.74834ZM67.0812 11.5605L61.6924 10.8521L63.9362 -6.21535L69.325 -5.50689L67.0812 11.5605ZM76.7985 3.47664C76.2486 13.9839 73.7714 21.2199 70.1064 30.7737L54.0341 24.608C57.5392 15.4713 59.2037 10.2972 59.6077 2.577L76.7985 3.47664ZM70.1064 30.7737C66.0344 41.3882 60.2348 51.1577 52.9652 59.6197L39.9076 48.4023C45.8602 41.4733 50.6532 33.4211 54.0341 24.608L70.1064 30.7737Z" fill="black" mask="url(#path-3-inside-2_6025_26182)"/>
<path d="M97.5231 38.3058C101.143 29.5662 103.532 20.387 104.639 11.0307L74.7662 5.18278C74.0569 13.9849 71.7696 20.3805 68.204 29.2348C63.7148 40.3821 57.132 50.5186 48.8254 59.0624C40.5187 67.6065 30.6505 74.3907 19.7811 79.0216C17.8212 79.8566 15.8357 80.6187 13.8286 81.3069L43.7314 93.163C55.4756 88.0263 66.1615 80.7363 75.2338 71.6639C84.7818 62.1159 92.3557 50.7808 97.5231 38.3058Z" stroke="black" stroke-width="8.60714"/>
<path d="M194.704 52.0996C192.854 58.8182 187.888 62.9077 176.496 62.9077C164.812 62.9077 156.73 56.9681 156.73 43.4337C156.73 29.8993 164.812 23.8624 176.496 23.8624C187.499 23.8624 192.562 27.3677 194.704 34.7678H210.089C209.115 20.1623 195.483 8.77008 176.496 8.77008C156.925 8.77008 142.027 21.0387 142.027 43.4337C142.027 66.2183 156.925 78 176.496 78C195.483 78 208.725 67.2893 210.089 52.0996H194.704ZM258.622 31.4572C254.922 26.5888 248.788 23.3755 238.661 23.3755C215.585 23.3755 213.15 42.7521 213.15 50.7365C213.15 58.0392 215.682 78 238.564 78C248.885 78 255.117 75.1763 258.817 70.4052H259.304V78H274.104V23.3755H259.304V31.4572H258.622ZM242.946 65.3419C228.827 65.3419 227.269 54.6313 227.269 50.7365C227.269 46.4522 228.73 36.131 242.946 36.131C255.701 36.131 258.33 43.3364 258.33 50.7365C258.33 59.0129 255.701 65.3419 242.946 65.3419ZM306.258 44.8943L304.992 44.7969C295.45 43.3364 293.795 41.9732 293.795 39.5389C293.795 37.8836 295.547 34.8652 303.824 34.8652C312.392 34.8652 316.092 37.2021 316.092 41.4863V41.9732H331.185V41.4863C331.185 33.1125 326.413 23.0834 303.824 23.0834C282.792 23.0834 278.41 32.1388 278.41 39.7337C278.41 50.6391 288.147 54.1444 303.824 56.1892C304.603 56.2865 305.382 56.3839 306.161 56.4813C312.1 57.1629 317.358 57.9418 317.358 62.0314C317.358 65.634 311.711 66.413 305.771 66.413C295.937 66.413 292.431 64.2709 292.431 59.5971V59.1103H277.242V60.1813C277.144 63.0051 277.144 67.5814 280.942 71.3789C285.323 75.7605 293.795 78 306.161 78C322.908 78 332.645 75.371 332.645 61.8366C332.645 48.8864 318.624 46.7443 306.258 44.8943ZM370.384 23.3755C360.647 23.3755 354.708 26.5888 351.202 31.4572H350.521V7.69901H335.721V78H350.521V51.7102C350.521 44.3101 353.345 36.131 366.1 36.131C380.316 36.131 380.316 46.4522 380.316 50.7365V78H395.019V50.7365C395.019 42.7521 393.558 23.3755 370.384 23.3755ZM431.928 23.3755C422.483 23.3755 419.173 26.1993 416.057 31.4572H415.18V23.3755H400.38V78H415.18V53.5602C415.18 46.1601 418.394 37.5915 429.396 37.5915C434.07 37.5915 437.868 38.3705 439.231 38.76L441.568 24.8361C439.036 24.2519 435.823 23.3755 431.928 23.3755ZM486.737 31.4572C483.037 26.5888 476.903 23.3755 466.777 23.3755C443.7 23.3755 441.266 42.7521 441.266 50.7365C441.266 58.0392 443.797 78 466.679 78C477 78 483.232 75.1763 486.932 70.4052H487.419V78H502.219V23.3755H487.419V31.4572H486.737ZM471.061 65.3419C456.942 65.3419 455.384 54.6313 455.384 50.7365C455.384 46.4522 456.845 36.131 471.061 36.131C483.816 36.131 486.445 43.3364 486.445 50.7365C486.445 59.0129 483.816 65.3419 471.061 65.3419ZM582.408 23.3755C568.776 23.3755 564.394 26.5888 560.792 31.4572H560.11C556.994 26.8809 551.444 23.3755 541.61 23.3755C531.873 23.3755 527.004 26.5888 523.499 31.4572H522.817V23.8624H508.115V78H522.817V51.7102C522.817 44.3101 523.694 36.131 536.449 36.131C549.886 36.131 549.692 46.4522 549.692 50.7365V78H564.394V51.418L564.492 51.7102C564.492 44.3101 565.368 36.131 578.123 36.131C591.561 36.131 591.366 46.4522 591.366 50.7365V78H606.166V50.7365C606.069 42.7521 605.484 23.3755 582.408 23.3755ZM647.017 23.4729C636.891 23.4729 630.659 26.6861 626.959 31.4572H626.18V23.4729H611.38V98.8371H626.18V70.5025H626.862C630.562 75.2736 636.793 78.1947 647.017 78.1947C669.996 78.1947 672.528 58.1366 672.528 50.8338C672.528 42.8495 670.094 23.4729 647.017 23.4729ZM642.733 65.4393C629.88 65.4393 627.251 59.1103 627.251 50.8338C627.251 43.4337 629.88 36.2284 642.733 36.2284C656.852 36.2284 658.409 46.5496 658.409 50.8338C658.409 54.7286 656.852 65.4393 642.733 65.4393Z" fill="black"/>
</svg>
